<mxfile host="65bd71144e">
    <diagram id="amqrW1gJ4K7w5JCBkm9t" name="Page-1">
        <mxGraphModel dx="277" dy="219" grid="1" gridSize="10" guides="1" tooltips="1" connect="1" arrows="1" fold="1" page="1" pageScale="1" pageWidth="827" pageHeight="1169" math="0" shadow="0">
            <root>
                <mxCell id="0"/>
                <mxCell id="1" parent="0"/>
                <mxCell id="fy_4Npov4pbfCk7cSv9C-45" value="" style="rounded=0;whiteSpace=wrap;html=1;fontSize=12;fontColor=#CC00CC;" parent="1" vertex="1">
                    <mxGeometry x="40" y="40" width="1040" height="800" as="geometry"/>
                </mxCell>
                <mxCell id="fy_4Npov4pbfCk7cSv9C-11" value="" style="edgeStyle=orthogonalEdgeStyle;rounded=0;orthogonalLoop=1;jettySize=auto;html=1;fontSize=12;fontColor=#000000;exitX=1;exitY=0.5;exitDx=0;exitDy=0;" parent="1" source="fy_4Npov4pbfCk7cSv9C-5" target="fy_4Npov4pbfCk7cSv9C-8" edge="1">
                    <mxGeometry relative="1" as="geometry"/>
                </mxCell>
                <mxCell id="fy_4Npov4pbfCk7cSv9C-5" value="&lt;i&gt;&lt;font color=&quot;#7f00ff&quot;&gt;getSha256Hash&lt;/font&gt;(text, iteration)&lt;/i&gt;" style="rounded=1;whiteSpace=wrap;html=1;fontSize=12;" parent="1" vertex="1">
                    <mxGeometry x="280" y="180" width="200" height="80" as="geometry"/>
                </mxCell>
                <mxCell id="fy_4Npov4pbfCk7cSv9C-7" style="edgeStyle=orthogonalEdgeStyle;rounded=0;orthogonalLoop=1;jettySize=auto;html=1;exitX=0.5;exitY=1;exitDx=0;exitDy=0;entryX=0.5;entryY=0;entryDx=0;entryDy=0;fontSize=12;" parent="1" source="fy_4Npov4pbfCk7cSv9C-6" target="fy_4Npov4pbfCk7cSv9C-5" edge="1">
                    <mxGeometry relative="1" as="geometry"/>
                </mxCell>
                <mxCell id="fy_4Npov4pbfCk7cSv9C-6" value="start" style="rounded=1;whiteSpace=wrap;html=1;fontSize=12;" parent="1" vertex="1">
                    <mxGeometry x="320" y="80" width="120" height="60" as="geometry"/>
                </mxCell>
                <mxCell id="fy_4Npov4pbfCk7cSv9C-12" value="" style="edgeStyle=orthogonalEdgeStyle;rounded=0;orthogonalLoop=1;jettySize=auto;html=1;fontSize=12;fontColor=#000000;" parent="1" source="fy_4Npov4pbfCk7cSv9C-8" target="fy_4Npov4pbfCk7cSv9C-9" edge="1">
                    <mxGeometry relative="1" as="geometry"/>
                </mxCell>
                <mxCell id="fy_4Npov4pbfCk7cSv9C-8" value="md = new MessageDigest" style="rounded=1;whiteSpace=wrap;html=1;fontSize=12;" parent="1" vertex="1">
                    <mxGeometry x="560" y="190" width="160" height="60" as="geometry"/>
                </mxCell>
                <mxCell id="fy_4Npov4pbfCk7cSv9C-14" value="" style="edgeStyle=orthogonalEdgeStyle;rounded=0;orthogonalLoop=1;jettySize=auto;html=1;fontSize=12;fontColor=#000000;" parent="1" source="fy_4Npov4pbfCk7cSv9C-9" target="fy_4Npov4pbfCk7cSv9C-13" edge="1">
                    <mxGeometry relative="1" as="geometry"/>
                </mxCell>
                <mxCell id="fy_4Npov4pbfCk7cSv9C-9" value="md.reset()" style="rounded=1;whiteSpace=wrap;html=1;fontSize=12;" parent="1" vertex="1">
                    <mxGeometry x="557" y="320" width="166" height="60" as="geometry"/>
                </mxCell>
                <mxCell id="fy_4Npov4pbfCk7cSv9C-16" value="" style="edgeStyle=orthogonalEdgeStyle;rounded=0;orthogonalLoop=1;jettySize=auto;html=1;fontSize=12;fontColor=#000000;" parent="1" source="fy_4Npov4pbfCk7cSv9C-13" target="fy_4Npov4pbfCk7cSv9C-15" edge="1">
                    <mxGeometry relative="1" as="geometry"/>
                </mxCell>
                <mxCell id="fy_4Npov4pbfCk7cSv9C-13" value="bytes = new Byte[](text)" style="rounded=1;whiteSpace=wrap;html=1;fontSize=12;" parent="1" vertex="1">
                    <mxGeometry x="297" y="320" width="166" height="60" as="geometry"/>
                </mxCell>
                <mxCell id="fy_4Npov4pbfCk7cSv9C-18" value="" style="edgeStyle=orthogonalEdgeStyle;rounded=0;orthogonalLoop=1;jettySize=auto;html=1;fontSize=12;fontColor=#000000;" parent="1" source="fy_4Npov4pbfCk7cSv9C-15" target="fy_4Npov4pbfCk7cSv9C-17" edge="1">
                    <mxGeometry relative="1" as="geometry"/>
                </mxCell>
                <mxCell id="fy_4Npov4pbfCk7cSv9C-15" value="digest = md.digest(bytes)" style="rounded=1;whiteSpace=wrap;html=1;fontSize=12;" parent="1" vertex="1">
                    <mxGeometry x="297" y="440" width="166" height="60" as="geometry"/>
                </mxCell>
                <mxCell id="fy_4Npov4pbfCk7cSv9C-20" value="" style="edgeStyle=orthogonalEdgeStyle;rounded=0;orthogonalLoop=1;jettySize=auto;html=1;fontSize=12;fontColor=#000000;" parent="1" source="fy_4Npov4pbfCk7cSv9C-17" target="fy_4Npov4pbfCk7cSv9C-19" edge="1">
                    <mxGeometry relative="1" as="geometry"/>
                </mxCell>
                <mxCell id="fy_4Npov4pbfCk7cSv9C-17" value="i = 0" style="rounded=1;whiteSpace=wrap;html=1;fontSize=12;" parent="1" vertex="1">
                    <mxGeometry x="557" y="440" width="166" height="60" as="geometry"/>
                </mxCell>
                <mxCell id="fy_4Npov4pbfCk7cSv9C-22" style="edgeStyle=orthogonalEdgeStyle;rounded=0;orthogonalLoop=1;jettySize=auto;html=1;exitX=0;exitY=0.5;exitDx=0;exitDy=0;entryX=1;entryY=0.5;entryDx=0;entryDy=0;fontSize=12;fontColor=#000000;" parent="1" source="fy_4Npov4pbfCk7cSv9C-19" target="fy_4Npov4pbfCk7cSv9C-21" edge="1">
                    <mxGeometry relative="1" as="geometry"/>
                </mxCell>
                <mxCell id="2" value="true" style="edgeLabel;html=1;align=center;verticalAlign=middle;resizable=0;points=[];" vertex="1" connectable="0" parent="fy_4Npov4pbfCk7cSv9C-22">
                    <mxGeometry x="-0.108" relative="1" as="geometry">
                        <mxPoint x="1" as="offset"/>
                    </mxGeometry>
                </mxCell>
                <mxCell id="fy_4Npov4pbfCk7cSv9C-31" style="edgeStyle=orthogonalEdgeStyle;rounded=0;orthogonalLoop=1;jettySize=auto;html=1;exitX=1;exitY=0.5;exitDx=0;exitDy=0;entryX=0.5;entryY=0;entryDx=0;entryDy=0;fontSize=12;fontColor=#000000;" parent="1" source="fy_4Npov4pbfCk7cSv9C-19" target="fy_4Npov4pbfCk7cSv9C-30" edge="1">
                    <mxGeometry relative="1" as="geometry"/>
                </mxCell>
                <mxCell id="3" value="false" style="edgeLabel;html=1;align=center;verticalAlign=middle;resizable=0;points=[];" vertex="1" connectable="0" parent="fy_4Npov4pbfCk7cSv9C-31">
                    <mxGeometry x="-0.3325" y="1" relative="1" as="geometry">
                        <mxPoint x="10" y="1" as="offset"/>
                    </mxGeometry>
                </mxCell>
                <mxCell id="fy_4Npov4pbfCk7cSv9C-19" value="i &amp;lt; iteration" style="rhombus;whiteSpace=wrap;html=1;fontSize=12;fontColor=#000000;" parent="1" vertex="1">
                    <mxGeometry x="600" y="560" width="80" height="80" as="geometry"/>
                </mxCell>
                <mxCell id="fy_4Npov4pbfCk7cSv9C-24" value="" style="edgeStyle=orthogonalEdgeStyle;rounded=0;orthogonalLoop=1;jettySize=auto;html=1;fontSize=12;fontColor=#000000;" parent="1" source="fy_4Npov4pbfCk7cSv9C-21" target="fy_4Npov4pbfCk7cSv9C-23" edge="1">
                    <mxGeometry relative="1" as="geometry"/>
                </mxCell>
                <mxCell id="fy_4Npov4pbfCk7cSv9C-21" value="md.reset()" style="rounded=1;whiteSpace=wrap;html=1;fontSize=12;" parent="1" vertex="1">
                    <mxGeometry x="297" y="570" width="166" height="60" as="geometry"/>
                </mxCell>
                <mxCell id="fy_4Npov4pbfCk7cSv9C-27" value="" style="edgeStyle=orthogonalEdgeStyle;rounded=0;orthogonalLoop=1;jettySize=auto;html=1;fontSize=12;fontColor=#000000;" parent="1" source="fy_4Npov4pbfCk7cSv9C-23" target="fy_4Npov4pbfCk7cSv9C-26" edge="1">
                    <mxGeometry relative="1" as="geometry"/>
                </mxCell>
                <mxCell id="fy_4Npov4pbfCk7cSv9C-23" value="digest = md.digest(digest)" style="rounded=1;whiteSpace=wrap;html=1;fontSize=12;" parent="1" vertex="1">
                    <mxGeometry x="297" y="680" width="166" height="60" as="geometry"/>
                </mxCell>
                <mxCell id="fy_4Npov4pbfCk7cSv9C-28" style="edgeStyle=orthogonalEdgeStyle;rounded=0;orthogonalLoop=1;jettySize=auto;html=1;exitX=0.5;exitY=0;exitDx=0;exitDy=0;entryX=0.5;entryY=1;entryDx=0;entryDy=0;fontSize=12;fontColor=#000000;" parent="1" source="fy_4Npov4pbfCk7cSv9C-26" target="fy_4Npov4pbfCk7cSv9C-19" edge="1">
                    <mxGeometry relative="1" as="geometry"/>
                </mxCell>
                <mxCell id="fy_4Npov4pbfCk7cSv9C-26" value="i = i + 1" style="rounded=1;whiteSpace=wrap;html=1;fontSize=12;" parent="1" vertex="1">
                    <mxGeometry x="575" y="680" width="130" height="60" as="geometry"/>
                </mxCell>
                <mxCell id="fy_4Npov4pbfCk7cSv9C-33" value="" style="edgeStyle=orthogonalEdgeStyle;rounded=0;orthogonalLoop=1;jettySize=auto;html=1;fontSize=12;fontColor=#000000;" parent="1" source="fy_4Npov4pbfCk7cSv9C-30" target="fy_4Npov4pbfCk7cSv9C-32" edge="1">
                    <mxGeometry relative="1" as="geometry"/>
                </mxCell>
                <mxCell id="fy_4Npov4pbfCk7cSv9C-30" value="&lt;font color=&quot;#cc00cc&quot;&gt;return&lt;/font&gt; digest" style="rounded=1;whiteSpace=wrap;html=1;fontSize=12;" parent="1" vertex="1">
                    <mxGeometry x="730" y="620" width="130" height="60" as="geometry"/>
                </mxCell>
                <mxCell id="fy_4Npov4pbfCk7cSv9C-32" value="end" style="rounded=1;whiteSpace=wrap;html=1;fontSize=12;" parent="1" vertex="1">
                    <mxGeometry x="735" y="720" width="120" height="60" as="geometry"/>
                </mxCell>
                <mxCell id="fy_4Npov4pbfCk7cSv9C-34" value="def = { text, iteration }&lt;br&gt;c-uses={}&lt;br&gt;p-uses={}" style="rounded=0;whiteSpace=wrap;html=1;fontSize=12;fillColor=#e1d5e7;strokeColor=#9673a6;" parent="1" vertex="1">
                    <mxGeometry x="140" y="180" width="140" height="80" as="geometry"/>
                </mxCell>
                <mxCell id="fy_4Npov4pbfCk7cSv9C-35" value="def = { md }&lt;br&gt;c-uses={}&lt;br&gt;p-uses={}" style="rounded=0;whiteSpace=wrap;html=1;fontSize=12;fillColor=#e1d5e7;strokeColor=#9673a6;" parent="1" vertex="1">
                    <mxGeometry x="720" y="190" width="120" height="60" as="geometry"/>
                </mxCell>
                <mxCell id="fy_4Npov4pbfCk7cSv9C-36" value="def = {}&lt;br&gt;c-uses={ md }&lt;br&gt;p-uses={}" style="rounded=0;whiteSpace=wrap;html=1;fontSize=12;fillColor=#e1d5e7;strokeColor=#9673a6;" parent="1" vertex="1">
                    <mxGeometry x="723" y="320" width="120" height="60" as="geometry"/>
                </mxCell>
                <mxCell id="fy_4Npov4pbfCk7cSv9C-37" value="def = { bytes }&lt;br&gt;c-uses={ text }&lt;br&gt;p-uses={}" style="rounded=0;whiteSpace=wrap;html=1;fontSize=12;fillColor=#e1d5e7;strokeColor=#9673a6;" parent="1" vertex="1">
                    <mxGeometry x="177" y="320" width="120" height="60" as="geometry"/>
                </mxCell>
                <mxCell id="fy_4Npov4pbfCk7cSv9C-38" value="def = { digest }&lt;br&gt;c-uses={ md, bytes }&lt;br&gt;p-uses={}" style="rounded=0;whiteSpace=wrap;html=1;fontSize=12;fillColor=#e1d5e7;strokeColor=#9673a6;" parent="1" vertex="1">
                    <mxGeometry x="177" y="440" width="120" height="60" as="geometry"/>
                </mxCell>
                <mxCell id="fy_4Npov4pbfCk7cSv9C-39" value="def = {}&lt;br&gt;c-uses={ md }&lt;br&gt;p-uses={}" style="rounded=0;whiteSpace=wrap;html=1;fontSize=12;fillColor=#e1d5e7;strokeColor=#9673a6;" parent="1" vertex="1">
                    <mxGeometry x="177" y="570" width="120" height="60" as="geometry"/>
                </mxCell>
                <mxCell id="fy_4Npov4pbfCk7cSv9C-40" value="def = { digest }&lt;br&gt;c-uses={ md, digest }&lt;br&gt;p-uses={}" style="rounded=0;whiteSpace=wrap;html=1;fontSize=12;fillColor=#e1d5e7;strokeColor=#9673a6;" parent="1" vertex="1">
                    <mxGeometry x="177" y="680" width="120" height="60" as="geometry"/>
                </mxCell>
                <mxCell id="fy_4Npov4pbfCk7cSv9C-41" value="def = { i }&lt;br&gt;c-uses={}&lt;br&gt;p-uses={}" style="rounded=0;whiteSpace=wrap;html=1;fontSize=12;fillColor=#e1d5e7;strokeColor=#9673a6;" parent="1" vertex="1">
                    <mxGeometry x="723" y="440" width="120" height="60" as="geometry"/>
                </mxCell>
                <mxCell id="fy_4Npov4pbfCk7cSv9C-42" value="def = {}&lt;br&gt;c-uses={ digest }&lt;br&gt;p-uses={}" style="rounded=0;whiteSpace=wrap;html=1;fontSize=12;fillColor=#e1d5e7;strokeColor=#9673a6;" parent="1" vertex="1">
                    <mxGeometry x="860" y="620" width="120" height="60" as="geometry"/>
                </mxCell>
                <mxCell id="fy_4Npov4pbfCk7cSv9C-43" value="def = { i }&lt;br&gt;c-uses={ i }&lt;br&gt;p-uses={}" style="rounded=0;whiteSpace=wrap;html=1;fontSize=12;fillColor=#e1d5e7;strokeColor=#9673a6;" parent="1" vertex="1">
                    <mxGeometry x="575" y="740" width="125" height="60" as="geometry"/>
                </mxCell>
                <mxCell id="fy_4Npov4pbfCk7cSv9C-44" value="def = {}&lt;br&gt;c-uses={}&lt;br&gt;p-uses={ i, iteration }" style="rounded=0;whiteSpace=wrap;html=1;fontSize=12;fillColor=#e1d5e7;strokeColor=#9673a6;" parent="1" vertex="1">
                    <mxGeometry x="660" y="520" width="120" height="60" as="geometry"/>
                </mxCell>
                <mxCell id="IoUvW_f_fXfAdCIheC9p-1" value="1" style="rounded=0;whiteSpace=wrap;html=1;fontSize=12;fillColor=#dae8fc;strokeColor=#6c8ebf;" parent="1" vertex="1">
                    <mxGeometry x="70" y="180" width="70" height="80" as="geometry"/>
                </mxCell>
                <mxCell id="IoUvW_f_fXfAdCIheC9p-2" value="2" style="rounded=0;whiteSpace=wrap;html=1;fontSize=12;fillColor=#dae8fc;strokeColor=#6c8ebf;" parent="1" vertex="1">
                    <mxGeometry x="840" y="190" width="70" height="60" as="geometry"/>
                </mxCell>
                <mxCell id="IoUvW_f_fXfAdCIheC9p-3" value="3" style="rounded=0;whiteSpace=wrap;html=1;fontSize=12;fillColor=#dae8fc;strokeColor=#6c8ebf;" parent="1" vertex="1">
                    <mxGeometry x="843" y="320" width="70" height="60" as="geometry"/>
                </mxCell>
                <mxCell id="IoUvW_f_fXfAdCIheC9p-4" value="4" style="rounded=0;whiteSpace=wrap;html=1;fontSize=12;fillColor=#dae8fc;strokeColor=#6c8ebf;" parent="1" vertex="1">
                    <mxGeometry x="107" y="320" width="70" height="60" as="geometry"/>
                </mxCell>
                <mxCell id="IoUvW_f_fXfAdCIheC9p-5" value="5" style="rounded=0;whiteSpace=wrap;html=1;fontSize=12;fillColor=#dae8fc;strokeColor=#6c8ebf;" parent="1" vertex="1">
                    <mxGeometry x="107" y="440" width="70" height="60" as="geometry"/>
                </mxCell>
                <mxCell id="IoUvW_f_fXfAdCIheC9p-6" value="8" style="rounded=0;whiteSpace=wrap;html=1;fontSize=12;fillColor=#dae8fc;strokeColor=#6c8ebf;" parent="1" vertex="1">
                    <mxGeometry x="107" y="570" width="70" height="60" as="geometry"/>
                </mxCell>
                <mxCell id="IoUvW_f_fXfAdCIheC9p-7" value="10" style="rounded=0;whiteSpace=wrap;html=1;fontSize=12;fillColor=#dae8fc;strokeColor=#6c8ebf;" parent="1" vertex="1">
                    <mxGeometry x="505" y="740" width="70" height="60" as="geometry"/>
                </mxCell>
                <mxCell id="IoUvW_f_fXfAdCIheC9p-8" value="9" style="rounded=0;whiteSpace=wrap;html=1;fontSize=12;fillColor=#dae8fc;strokeColor=#6c8ebf;" parent="1" vertex="1">
                    <mxGeometry x="107" y="680" width="70" height="60" as="geometry"/>
                </mxCell>
                <mxCell id="IoUvW_f_fXfAdCIheC9p-9" value="11" style="rounded=0;whiteSpace=wrap;html=1;fontSize=12;fillColor=#dae8fc;strokeColor=#6c8ebf;" parent="1" vertex="1">
                    <mxGeometry x="980" y="620" width="70" height="60" as="geometry"/>
                </mxCell>
                <mxCell id="IoUvW_f_fXfAdCIheC9p-10" value="6" style="rounded=0;whiteSpace=wrap;html=1;fontSize=12;fillColor=#dae8fc;strokeColor=#6c8ebf;" parent="1" vertex="1">
                    <mxGeometry x="843" y="440" width="70" height="60" as="geometry"/>
                </mxCell>
                <mxCell id="IoUvW_f_fXfAdCIheC9p-11" value="7" style="rounded=0;whiteSpace=wrap;html=1;fontSize=12;fillColor=#dae8fc;strokeColor=#6c8ebf;" parent="1" vertex="1">
                    <mxGeometry x="780" y="520" width="70" height="60" as="geometry"/>
                </mxCell>
            </root>
        </mxGraphModel>
    </diagram>
</mxfile>